<?xml version="1.0" encoding="UTF-8"?>
<svg id="Layer_2" data-name="Layer 2" xmlns="http://www.w3.org/2000/svg" viewBox="0 0 3.21 2.78">
  <defs>
    <style>
      .cls-1 {
        fill: #456184;
      }
    </style>
  </defs>
  <g id="Layer_1-2" data-name="Layer 1">
    <path class="cls-1" d="M1.12,1.92l.02.53s.03.03.04.01l.31-.43s.03-.01.04,0l.51.73s.05,0,.04-.02l-.18-.87s.01-.03.03-.03l1.25.46s.04-.02.02-.04l-1.09-.78s-.01-.03,0-.04l.8-.37s.01-.04-.01-.04l-.89.02s-.03-.02-.02-.03l.38-.8s-.02-.04-.04-.03l-.67.59s-.03,0-.04,0l-.21-.56s-.04-.02-.04,0l-.14.58s-.02.02-.04.01L.14,0s-.05.01-.03.03l.8,1.06s0,.03-.02.04L.02,1.21s-.03.04,0,.04l.84.28s.02.03,0,.04l-.63.62s0,.05.02.04l.83-.33s.03,0,.03.02Z"/>
  </g>
</svg>